<?xml version="1.0" encoding="UTF-8" standalone="no" ?>
<!DOCTYPE svg PUBLIC "-//W3C//DTD SVG 1.1//EN" "http://www.w3.org/Graphics/SVG/1.1/DTD/svg11.dtd">
<svg xmlns="http://www.w3.org/2000/svg" xmlns:xlink="http://www.w3.org/1999/xlink" version="1.1" width="1080" height="1080" viewBox="0 0 1080 1080" xml:space="preserve">
<desc>Created with Fabric.js 5.2.4</desc>
<defs>
</defs>
<g transform="matrix(1 0 0 1 540 540)" id="50b89ec9-7f49-4afd-9c6b-b73b44872c54"  >
<rect style="stroke: none; stroke-width: 1; stroke-dasharray: none; stroke-linecap: butt; stroke-dashoffset: 0; stroke-linejoin: miter; stroke-miterlimit: 4; fill: rgb(255,255,255); fill-rule: nonzero; opacity: 1; visibility: hidden;" vector-effect="non-scaling-stroke"  x="-540" y="-540" rx="0" ry="0" width="1080" height="1080" />
</g>
<g transform="matrix(1 0 0 1 540 540)" id="34d2fad9-fc35-44f6-8681-55e5e0959dfa"  >
</g>
<g transform="matrix(1 0 0 1 540 652.09)"  >
<g style="" vector-effect="non-scaling-stroke"   >
		<g transform="matrix(1 0 0 1 0 0)"  >
<rect style="stroke: none; stroke-width: 1; stroke-dasharray: none; stroke-linecap: butt; stroke-dashoffset: 0; stroke-linejoin: miter; stroke-miterlimit: 4; fill: rgb(1,5,54); fill-rule: nonzero; opacity: 1;" vector-effect="non-scaling-stroke"  x="-1000" y="-750" rx="0" ry="0" width="2000" height="1500" />
</g>
		<g transform="matrix(0.02 0 0 0.02 0.41 0.41)"  >
<path style="stroke: none; stroke-width: 1; stroke-dasharray: none; stroke-linecap: butt; stroke-dashoffset: 0; stroke-linejoin: miter; stroke-miterlimit: 10; fill: rgb(251,251,248); fill-rule: nonzero; opacity: 1;" vector-effect="non-scaling-stroke"  transform=" translate(-30001, -30000.5)" d="M 25167 8301 C 25388 8301 25567 8480 25567 8701 C 25567 8922 25388 9101 25167 9101 L 21343 9101 L 18590 11854 C 18434 12010 18181 12010 18024 11854 C 17868 11698 17868 11445 18024 11288 L 20212 9100 L 13737 9100 C 11890 9100 10666 9531 9918 10401 C 9158 11286 8850 12655 8850 14511 C 8850 14522 8850 14533 8849 14544 L 8883 20428 L 11239 18072 C 11395 17916 11648 17916 11805 18072 C 11961 18228 11961 18481 11805 18638 L 8890 21553 C 8923 27299 8921 32996 8888 38742 C 12975 42783 17005 46810 21045 50896 L 25115 50896 C 25336 50896 25515 51075 25515 51296 C 25515 51517 25336 51696 25115 51696 L 21836 51696 L 25996 55904 L 25997 55903 C 27310 57216 28495 57965 29657 58054 C 30803 58141 31973 57580 33279 56275 L 37858 51696 L 34535 51696 C 34314 51696 34135 51517 34135 51296 C 34135 51075 34314 50896 34535 50896 L 38658 50896 L 41324 48230 C 41480 48074 41733 48074 41890 48230 C 42046 48386 42046 48639 41890 48796 L 39789 50897 L 46264 50897 C 48111 50897 49335 50466 50083 49596 C 50843 48711 51151 47342 51151 45486 L 51153 45486 L 51119 39569 L 48551 42137 C 48395 42293 48142 42293 47985 42137 C 47829 41981 47829 41728 47985 41571 L 51112 38444 C 51079 32698 51081 27001 51114 21255 C 47027 17214 42997 13187 38957 9101 L 34764 9101 C 34543 9101 34364 8922 34364 8701 C 34364 8480 34543 8301 34764 8301 L 38166 8301 L 34025 4112 C 34018 4106 34012 4100 34005 4094 C 32692 2781 31507 2032 30345 1943 C 29199 1856 28029 2417 26723 3722 L 22144 8301 L 25168 8301 z M 13737 8301 L 21012 8301 L 26156 3157 C 27639 1674 29012 1041 30403 1147 C 31777 1251 33122 2081 34570 3529 C 34578 3537 34585 3544 34592 3552 L 39287 8301 L 46264 8301 C 48360 8301 49779 8825 50689 9884 C 51587 10929 51950 12466 51950 14513 C 51950 14526 51949 14538 51948 14550 L 51912 20923 L 56471 25431 L 56472 25430 C 57920 26878 58750 28222 58854 29597 C 58960 30988 58326 32361 56844 33844 L 51910 38778 L 51948 45488 L 51950 45488 C 51950 47535 51586 49072 50689 50117 C 49779 51176 48360 51700 46264 51700 L 38989 51700 L 33845 56844 C 32362 58327 30989 58960 29598 58854 C 28224 58750 26879 57920 25431 56472 L 25432 56471 L 20714 51699 L 13737 51699 C 11641 51699 10222 51175 9312 50116 C 8414 49071 8051 47534 8051 45487 L 8053 45487 L 8090 39077 L 3553 34592 C 3545 34585 3537 34578 3530 34570 C 2082 33122 1252 31778 1148 30403 C 1042 29012 1676 27639 3158 26156 L 8092 21222 L 8054 14550 C 8053 14538 8052 14525 8052 14513 C 8052 12466 8416 10929 9313 9884 C 10223 8825 11642 8301 13738 8301 z M 8141 30000 L 8097 22347 L 3723 26721 C 2418 28026 1857 29197 1944 30343 C 2032 31505 2782 32691 4095 34003 C 4101 34009 4108 34016 4113 34023 L 8096 37960 L 8141 29999 z M 8882 39860 L 8850 45487 L 8852 45487 C 8852 47344 9160 48713 9920 49597 C 10668 50468 11892 50898 13739 50898 L 19925 50898 L 14545 45456 L 8883 39859 z M 46264 9101 L 40078 9101 L 45458 14543 L 51120 20140 L 51152 14546 C 51151 14535 51151 14524 51151 14513 C 51151 12656 50843 11287 50083 10403 C 49335 9532 48111 9102 46264 9102 z M 51906 22039 L 51861 30000 L 51905 37653 L 56279 33279 C 57584 31974 58145 30803 58058 29657 C 57970 28494 57220 27309 55907 25997 L 55908 25996 L 51906 22040 z" stroke-linecap="round" />
</g>
		<g transform="matrix(2.91 0 0 2.91 0.03 178.76)"  >
<path style="stroke: none; stroke-width: 1; stroke-dasharray: none; stroke-linecap: butt; stroke-dashoffset: 0; stroke-linejoin: miter; stroke-miterlimit: 4; fill: rgb(12,243,72); fill-rule: nonzero; opacity: 1;" vector-effect="non-scaling-stroke"  transform=" translate(-117.64, 16.3)" d="M 15.95 0 L 3.85 0 L 3.85 -32.6 L 15 -32.6 Q 17.55 -32.6 19.73 -32.23 Q 21.9 -31.85 23.53 -30.9 Q 25.15 -29.95 26.08 -28.4 Q 27 -26.85 27 -24.5 L 27 -24.5 Q 27 -23.4 26.7 -22.3 Q 26.4 -21.2 25.85 -20.25 Q 25.3 -19.3 24.53 -18.55 Q 23.75 -17.8 22.75 -17.45 L 22.75 -17.45 L 22.75 -17.25 Q 24 -16.95 25.05 -16.32 Q 26.1 -15.7 26.9 -14.75 Q 27.7 -13.8 28.15 -12.53 Q 28.6 -11.25 28.6 -9.6 L 28.6 -9.6 Q 28.6 -7.1 27.63 -5.3 Q 26.65 -3.5 24.93 -2.33 Q 23.2 -1.15 20.9 -0.58 Q 18.6 0 15.95 0 L 15.95 0 Z M 11.2 -26.9 L 11.2 -19.55 L 14.65 -19.55 Q 17.35 -19.55 18.57 -20.6 Q 19.8 -21.65 19.8 -23.4 L 19.8 -23.4 Q 19.8 -25.3 18.55 -26.1 Q 17.3 -26.9 14.7 -26.9 L 14.7 -26.9 L 11.2 -26.9 Z M 11.2 -14.1 L 11.2 -5.7 L 15.35 -5.7 Q 21.4 -5.7 21.4 -10.1 L 21.4 -10.1 Q 21.4 -12.25 19.9 -13.18 Q 18.4 -14.1 15.35 -14.1 L 15.35 -14.1 L 11.2 -14.1 Z M 41.75 -16.5 L 41.75 -16.5 L 40.95 -13.5 L 47.9 -13.5 L 47.15 -16.5 Q 46.45 -18.95 45.8 -21.7 Q 45.15 -24.45 44.5 -27 L 44.5 -27 L 44.3 -27 Q 43.7 -24.4 43.07 -21.68 Q 42.45 -18.95 41.75 -16.5 Z M 37.45 0 L 29.95 0 L 40.15 -32.6 L 49 -32.6 L 59.2 0 L 51.4 0 L 49.4 -7.75 L 39.45 -7.75 L 37.45 0 Z M 69.75 0 L 62.75 0 L 62.75 -32.6 L 70.3 -32.6 L 78.8 -16.4 L 82 -9.2 L 82.2 -9.2 Q 81.95 -11.8 81.62 -15 Q 81.3 -18.2 81.3 -21.1 L 81.3 -21.1 L 81.3 -32.6 L 88.3 -32.6 L 88.3 0 L 80.75 0 L 72.25 -16.25 L 69.05 -23.35 L 68.84 -23.35 Q 69.09 -20.65 69.42 -17.55 Q 69.75 -14.45 69.75 -11.55 L 69.75 -11.55 L 69.75 0 Z M 103.34 0 L 95.99 0 L 95.99 -32.6 L 103.34 -32.6 L 103.34 -19.25 L 103.54 -19.25 L 113.24 -32.6 L 121.34 -32.6 L 111.49 -19.6 L 123.14 0 L 115.09 0 L 107.14 -13.75 L 103.34 -8.75 L 103.34 0 Z M 147.59 0 L 126.69 0 L 126.69 -32.6 L 147.09 -32.6 L 147.09 -26.4 L 134.04 -26.4 L 134.04 -19.85 L 145.14 -19.85 L 145.14 -13.7 L 134.04 -13.7 L 134.04 -6.2 L 147.59 -6.2 L 147.59 0 Z M 161.74 -16.5 L 161.74 -16.5 L 160.94 -13.5 L 167.89 -13.5 L 167.14 -16.5 Q 166.44 -18.95 165.79 -21.7 Q 165.14 -24.45 164.49 -27 L 164.49 -27 L 164.29 -27 Q 163.69 -24.4 163.06 -21.68 Q 162.44 -18.95 161.74 -16.5 Z M 157.44 0 L 149.94 0 L 160.14 -32.6 L 168.99 -32.6 L 179.19 0 L 171.39 0 L 169.39 -7.75 L 159.44 -7.75 L 157.44 0 Z M 192.69 0.6 L 192.69 0.6 Q 189.49 0.6 186.31 -0.58 Q 183.14 -1.75 180.64 -4.1 L 180.64 -4.1 L 184.84 -9.15 Q 186.59 -7.65 188.71 -6.7 Q 190.84 -5.75 192.89 -5.75 L 192.89 -5.75 Q 195.19 -5.75 196.31 -6.6 Q 197.44 -7.45 197.44 -8.9 L 197.44 -8.9 Q 197.44 -9.65 197.11 -10.2 Q 196.79 -10.75 196.16 -11.18 Q 195.54 -11.6 194.66 -11.98 Q 193.79 -12.35 192.74 -12.8 L 192.74 -12.8 L 188.49 -14.6 Q 187.24 -15.1 186.06 -15.9 Q 184.89 -16.7 183.96 -17.78 Q 183.04 -18.85 182.49 -20.28 Q 181.94 -21.7 181.94 -23.5 L 181.94 -23.5 Q 181.94 -25.5 182.79 -27.28 Q 183.64 -29.05 185.19 -30.38 Q 186.74 -31.7 188.86 -32.45 Q 190.99 -33.2 193.54 -33.2 L 193.54 -33.2 Q 196.39 -33.2 199.16 -32.1 Q 201.94 -31 204.04 -28.9 L 204.04 -28.9 L 200.29 -24.25 Q 198.69 -25.5 197.09 -26.18 Q 195.49 -26.85 193.54 -26.85 L 193.54 -26.85 Q 191.64 -26.85 190.51 -26.08 Q 189.39 -25.3 189.39 -23.9 L 189.39 -23.9 Q 189.39 -23.15 189.76 -22.63 Q 190.14 -22.1 190.81 -21.68 Q 191.49 -21.25 192.39 -20.88 Q 193.29 -20.5 194.34 -20.05 L 194.34 -20.05 L 198.54 -18.35 Q 201.54 -17.15 203.26 -15.05 Q 204.99 -12.95 204.99 -9.5 L 204.99 -9.5 Q 204.99 -7.45 204.16 -5.63 Q 203.34 -3.8 201.76 -2.43 Q 200.19 -1.05 197.89 -0.23 Q 195.59 0.6 192.69 0.6 Z M 231.43 0 L 210.53 0 L 210.53 -32.6 L 230.93 -32.6 L 230.93 -26.4 L 217.88 -26.4 L 217.88 -19.85 L 228.98 -19.85 L 228.98 -13.7 L 217.88 -13.7 L 217.88 -6.2 L 231.43 -6.2 L 231.43 0 Z" stroke-linecap="round" />
</g>
		<g transform="matrix(1.01 0 0 1.01 0.02 276.2)" id="text-1"  >
<path style="stroke: none; stroke-width: 1; stroke-dasharray: none; stroke-linecap: butt; stroke-dashoffset: 0; stroke-linejoin: miter; stroke-miterlimit: 4; fill: rgb(251,251,248); fill-rule: nonzero; opacity: 1;" vector-effect="non-scaling-stroke"  transform=" translate(-205.58, 13.38)" d="M 27.1 -28 L 27.1 -28 Q 27.1 -26 26.28 -24.28 Q 25.45 -22.55 23.93 -21.38 Q 22.4 -20.2 20.4 -19.9 L 20.4 -19.9 Q 22.9 -19.5 24.78 -18.15 Q 26.65 -16.8 27.73 -14.75 Q 28.8 -12.7 28.8 -10.2 L 28.8 -10.2 Q 28.8 -7.1 27.63 -5.13 Q 26.45 -3.15 24.45 -2.02 Q 22.45 -0.9 20 -0.45 Q 17.55 0 15 0 L 15 0 L 3.85 0 L 3.85 -33.3 Q 3.85 -33.35 3.68 -34.08 Q 3.5 -34.8 3.35 -35.58 Q 3.2 -36.35 3.15 -36.5 L 3.15 -36.5 L 15.7 -36.5 Q 17.85 -36.5 19.88 -36.13 Q 21.9 -35.75 23.55 -34.8 Q 25.2 -33.85 26.15 -32.2 Q 27.1 -30.55 27.1 -28 Z M 21.25 -27.55 L 21.25 -27.55 Q 21.25 -29.35 20.48 -30.43 Q 19.7 -31.5 18.38 -31.95 Q 17.05 -32.4 15.4 -32.4 L 15.4 -32.4 L 9.45 -32.4 L 9.45 -21.75 L 14.75 -21.75 Q 17.65 -21.75 19.45 -23.13 Q 21.25 -24.5 21.25 -27.55 Z M 22.85 -10.95 L 22.85 -10.95 Q 22.85 -13.35 21.6 -14.85 Q 20.35 -16.35 18.4 -17 Q 16.45 -17.65 14.3 -17.65 L 14.3 -17.65 L 9.45 -17.65 L 9.45 -4.1 L 15 -4.1 Q 17.3 -4.1 19.07 -4.75 Q 20.85 -5.4 21.85 -6.93 Q 22.85 -8.45 22.85 -10.95 Z M 43.35 -25.45 L 43.35 -25.45 Q 47.35 -25.45 49.42 -23.35 Q 51.5 -21.25 51.5 -17.3 L 51.5 -17.3 L 51.5 -5.45 Q 51.5 -4.25 51.92 -3.83 Q 52.35 -3.4 52.95 -3.4 L 52.95 -3.4 Q 53.4 -3.4 53.9 -3.53 Q 54.4 -3.65 54.85 -3.85 L 54.85 -3.85 L 55.8 -0.85 Q 54.85 -0.3 53.55 0.08 Q 52.25 0.45 51.05 0.45 L 51.05 0.45 Q 49.5 0.45 48.42 -0.3 Q 47.35 -1.05 47.05 -2.95 L 47.05 -2.95 Q 45.6 -1.25 43.67 -0.35 Q 41.75 0.55 39.55 0.55 L 39.55 0.55 Q 36.6 0.55 34.6 -1.18 Q 32.6 -2.9 32.6 -5.95 L 32.6 -5.95 Q 32.6 -8.7 33.92 -10.43 Q 35.25 -12.15 37.4 -13.03 Q 39.55 -13.9 41.97 -14.23 Q 44.4 -14.55 46.55 -14.55 L 46.55 -14.55 L 46.55 -17.45 Q 46.55 -19.5 45.7 -20.65 Q 44.85 -21.8 42.65 -21.8 L 42.65 -21.8 Q 40.85 -21.8 39.1 -20.98 Q 37.35 -20.15 35.8 -18.9 L 35.8 -18.9 L 33.6 -22.25 Q 35.7 -23.85 38.22 -24.65 Q 40.75 -25.45 43.35 -25.45 Z M 46.55 -9.55 L 46.55 -10.95 Q 45.35 -10.95 43.82 -10.83 Q 42.3 -10.7 40.9 -10.28 Q 39.5 -9.85 38.6 -8.9 Q 37.7 -7.95 37.7 -6.3 L 37.7 -6.3 Q 37.7 -4.85 38.75 -4.13 Q 39.8 -3.4 41.2 -3.4 L 41.2 -3.4 Q 42.85 -3.4 44.02 -4.33 Q 45.2 -5.25 45.87 -6.65 Q 46.55 -8.05 46.55 -9.55 L 46.55 -9.55 Z M 57.65 -24.65 L 62.95 -25.3 Q 63.3 -24.5 63.52 -23.63 Q 63.75 -22.75 63.85 -21.9 L 63.85 -21.9 Q 65.35 -23.35 67.4 -24.43 Q 69.45 -25.5 71.55 -25.5 L 71.55 -25.5 Q 74.35 -25.5 76 -24.38 Q 77.65 -23.25 78.35 -21.28 Q 79.05 -19.3 79.05 -16.7 L 79.05 -16.7 L 79.05 0 L 74.15 0 L 74.15 -15.65 Q 74.15 -17.05 73.95 -18.35 Q 73.75 -19.65 72.95 -20.5 Q 72.15 -21.35 70.4 -21.35 L 70.4 -21.35 Q 69.35 -21.35 68.17 -20.88 Q 67 -20.4 65.97 -19.73 Q 64.95 -19.05 64.15 -18.3 L 64.15 -18.3 L 64.15 0 L 59.25 0 L 59.25 -17.7 Q 59.25 -18.65 59.12 -19.98 Q 59 -21.3 58.65 -22.58 Q 58.3 -23.85 57.65 -24.65 L 57.65 -24.65 Z M 85.89 -38.25 L 91.49 -38.25 L 91.49 -14.6 L 100.14 -24.85 L 105.19 -24.85 L 96.24 -14.4 L 106.59 0 L 100.84 0 L 91.49 -13.2 L 91.49 0 L 86.54 0 L 86.54 -35.4 L 85.89 -38.25 Z M 115.54 -33.5 L 115.54 -33.5 Q 115.54 -32.1 114.59 -31.1 Q 113.64 -30.1 112.19 -30.1 L 112.19 -30.1 Q 110.79 -30.1 109.82 -31.1 Q 108.84 -32.1 108.84 -33.5 L 108.84 -33.5 Q 108.84 -34.9 109.82 -35.88 Q 110.79 -36.85 112.19 -36.85 L 112.19 -36.85 Q 113.59 -36.85 114.57 -35.88 Q 115.54 -34.9 115.54 -33.5 Z M 109.14 -24.85 L 114.69 -24.85 L 114.69 0 L 109.74 0 L 109.74 -22 L 109.14 -24.85 Z M 120.74 -24.65 L 126.04 -25.3 Q 126.39 -24.5 126.61 -23.63 Q 126.84 -22.75 126.94 -21.9 L 126.94 -21.9 Q 128.44 -23.35 130.49 -24.43 Q 132.54 -25.5 134.64 -25.5 L 134.64 -25.5 Q 137.44 -25.5 139.09 -24.38 Q 140.74 -23.25 141.44 -21.28 Q 142.14 -19.3 142.14 -16.7 L 142.14 -16.7 L 142.14 0 L 137.24 0 L 137.24 -15.65 Q 137.24 -17.05 137.04 -18.35 Q 136.84 -19.65 136.04 -20.5 Q 135.24 -21.35 133.49 -21.35 L 133.49 -21.35 Q 132.44 -21.35 131.26 -20.88 Q 130.09 -20.4 129.06 -19.73 Q 128.04 -19.05 127.24 -18.3 L 127.24 -18.3 L 127.24 0 L 122.34 0 L 122.34 -17.7 Q 122.34 -18.65 122.21 -19.98 Q 122.09 -21.3 121.74 -22.58 Q 121.39 -23.85 120.74 -24.65 L 120.74 -24.65 Z M 156.78 -25.5 L 156.78 -25.5 Q 158.28 -25.5 159.56 -25.15 Q 160.84 -24.8 162.24 -24.8 L 162.24 -24.8 Q 164.24 -24.8 166.34 -25 Q 168.44 -25.2 170.59 -25.45 L 170.59 -25.45 L 169.59 -21.65 L 165.49 -21.65 Q 165.19 -21.65 164.84 -21.7 Q 164.49 -21.75 164.19 -21.8 L 164.19 -21.8 Q 164.99 -20.7 165.41 -19.53 Q 165.84 -18.35 165.84 -17.05 L 165.84 -17.05 Q 165.84 -14.5 164.64 -12.53 Q 163.44 -10.55 161.28 -9.45 Q 159.14 -8.35 156.28 -8.35 L 156.28 -8.35 Q 155.19 -8.35 154.34 -7.7 Q 153.49 -7.05 153.49 -5.85 L 153.49 -5.85 Q 153.49 -5.05 154.01 -4.67 Q 154.53 -4.3 155.34 -4.23 Q 156.14 -4.15 156.99 -4.15 L 156.99 -4.15 L 160.74 -4.15 Q 162.14 -4.15 163.61 -4 Q 165.09 -3.85 166.29 -3.3 Q 167.49 -2.75 168.26 -1.68 Q 169.04 -0.6 169.04 1.25 L 169.04 1.25 Q 169.04 3.95 167.86 5.9 Q 166.69 7.85 164.78 9.1 Q 162.89 10.35 160.53 10.93 Q 158.19 11.5 155.84 11.5 L 155.84 11.5 Q 154.39 11.5 152.76 11.2 Q 151.14 10.9 149.69 10.2 Q 148.24 9.5 147.34 8.3 Q 146.44 7.1 146.44 5.2 L 146.44 5.2 Q 146.44 3.2 147.69 1.65 Q 148.94 0.1 150.53 -0.85 L 150.53 -0.85 L 150.53 -1 Q 149.53 -1.45 148.89 -2.43 Q 148.24 -3.4 148.24 -4.5 L 148.24 -4.5 Q 148.24 -5.1 148.76 -5.65 Q 149.28 -6.2 150.09 -7.13 Q 150.89 -8.05 151.84 -9.7 L 151.84 -9.7 Q 149.94 -10.85 148.84 -12.73 Q 147.74 -14.6 147.74 -16.9 L 147.74 -16.9 Q 147.74 -19.4 148.96 -21.35 Q 150.19 -23.3 152.28 -24.4 Q 154.39 -25.5 156.78 -25.5 Z M 156.78 -22.2 L 156.78 -22.2 Q 155.09 -22.2 153.99 -20.63 Q 152.89 -19.05 152.89 -16.85 L 152.89 -16.85 Q 152.89 -14.6 153.99 -13.05 Q 155.09 -11.5 156.78 -11.5 L 156.78 -11.5 Q 158.59 -11.5 159.66 -13 Q 160.74 -14.5 160.74 -16.8 L 160.74 -16.8 Q 160.74 -19.05 159.61 -20.63 Q 158.49 -22.2 156.78 -22.2 Z M 159.39 0.05 L 153.99 0.05 Q 153.03 0.65 152.26 1.85 Q 151.49 3.05 151.49 4.25 L 151.49 4.25 Q 151.49 5.4 152.34 6.2 Q 153.19 7 154.36 7.35 Q 155.53 7.7 156.59 7.7 L 156.59 7.7 Q 158.24 7.7 160.06 7.28 Q 161.89 6.85 163.14 5.73 Q 164.39 4.6 164.39 2.65 L 164.39 2.65 Q 164.39 1.4 163.59 0.85 Q 162.78 0.3 161.61 0.18 Q 160.44 0.05 159.39 0.05 L 159.39 0.05 Z M 184.43 -36.5 L 192.38 -36.5 L 200.78 -13.95 Q 201.28 -12.6 201.66 -11.28 Q 202.03 -9.95 202.43 -8.4 L 202.43 -8.4 Q 202.83 -9.95 203.16 -11.2 Q 203.48 -12.45 203.93 -13.8 L 203.93 -13.8 L 212.28 -36.5 L 219.48 -36.5 L 219.48 0 L 213.98 0 L 213.98 -25.7 Q 213.98 -26.6 214.03 -27.5 Q 214.08 -28.4 214.13 -29.35 L 214.13 -29.35 Q 213.83 -28.5 213.53 -27.63 Q 213.23 -26.75 212.88 -25.9 L 212.88 -25.9 L 203.43 0.05 L 200.28 0.05 L 190.68 -26.05 Q 190.38 -26.85 190.06 -27.7 Q 189.73 -28.55 189.48 -29.35 L 189.48 -29.35 Q 189.53 -28.45 189.61 -27.6 Q 189.68 -26.75 189.68 -25.85 L 189.68 -25.85 L 189.68 0 L 185.18 0 L 185.18 -33.3 L 184.43 -36.5 Z M 235.73 -25.45 L 235.73 -25.45 Q 239.73 -25.45 241.8 -23.35 Q 243.88 -21.25 243.88 -17.3 L 243.88 -17.3 L 243.88 -5.45 Q 243.88 -4.25 244.3 -3.83 Q 244.73 -3.4 245.33 -3.4 L 245.33 -3.4 Q 245.78 -3.4 246.28 -3.53 Q 246.78 -3.65 247.23 -3.85 L 247.23 -3.85 L 248.18 -0.85 Q 247.23 -0.3 245.93 0.08 Q 244.63 0.45 243.43 0.45 L 243.43 0.45 Q 241.88 0.45 240.8 -0.3 Q 239.73 -1.05 239.43 -2.95 L 239.43 -2.95 Q 237.98 -1.25 236.05 -0.35 Q 234.13 0.55 231.93 0.55 L 231.93 0.55 Q 228.98 0.55 226.98 -1.18 Q 224.98 -2.9 224.98 -5.95 L 224.98 -5.95 Q 224.98 -8.7 226.3 -10.43 Q 227.63 -12.15 229.78 -13.03 Q 231.93 -13.9 234.35 -14.23 Q 236.78 -14.55 238.93 -14.55 L 238.93 -14.55 L 238.93 -17.45 Q 238.93 -19.5 238.08 -20.65 Q 237.23 -21.8 235.03 -21.8 L 235.03 -21.8 Q 233.23 -21.8 231.48 -20.98 Q 229.73 -20.15 228.18 -18.9 L 228.18 -18.9 L 225.98 -22.25 Q 228.08 -23.85 230.6 -24.65 Q 233.13 -25.45 235.73 -25.45 Z M 238.93 -9.55 L 238.93 -10.95 Q 237.73 -10.95 236.2 -10.83 Q 234.68 -10.7 233.28 -10.28 Q 231.88 -9.85 230.98 -8.9 Q 230.08 -7.95 230.08 -6.3 L 230.08 -6.3 Q 230.08 -4.85 231.13 -4.13 Q 232.18 -3.4 233.58 -3.4 L 233.58 -3.4 Q 235.23 -3.4 236.4 -4.33 Q 237.58 -5.25 238.25 -6.65 Q 238.93 -8.05 238.93 -9.55 L 238.93 -9.55 Z M 260.98 -25.4 L 260.98 -25.4 Q 262.53 -25.4 264.18 -24.93 Q 265.83 -24.45 266.98 -23.45 L 266.98 -23.45 Q 266.93 -24.25 266.93 -24.9 Q 266.93 -25.55 266.93 -26.3 L 266.93 -26.3 L 266.93 -35.4 L 266.18 -38.25 L 271.83 -38.25 L 271.83 -7.15 Q 271.83 -6.1 271.95 -4.8 Q 272.08 -3.5 272.4 -2.27 Q 272.73 -1.05 273.23 -0.1 L 273.23 -0.1 L 268.13 0.45 Q 267.83 -0.35 267.6 -1.15 Q 267.38 -1.95 267.28 -2.8 L 267.28 -2.8 Q 266.08 -1.15 264.1 -0.25 Q 262.13 0.65 260.13 0.65 L 260.13 0.65 Q 257.48 0.65 255.53 -0.45 Q 253.58 -1.55 252.28 -3.43 Q 250.98 -5.3 250.33 -7.58 Q 249.68 -9.85 249.68 -12.2 L 249.68 -12.2 Q 249.68 -15.7 250.93 -18.73 Q 252.18 -21.75 254.68 -23.58 Q 257.18 -25.4 260.98 -25.4 Z M 261.28 -21.65 L 261.28 -21.65 Q 259.43 -21.65 258.23 -20.8 Q 257.03 -19.95 256.3 -18.57 Q 255.58 -17.2 255.28 -15.6 Q 254.98 -14 254.98 -12.5 L 254.98 -12.5 Q 254.98 -10.95 255.3 -9.35 Q 255.63 -7.75 256.4 -6.38 Q 257.18 -5 258.45 -4.17 Q 259.73 -3.35 261.58 -3.35 L 261.58 -3.35 Q 263.13 -3.35 264.55 -4.28 Q 265.98 -5.2 266.93 -6.35 L 266.93 -6.35 L 266.93 -14.65 Q 266.93 -16.5 266.38 -18.1 Q 265.83 -19.7 264.58 -20.68 Q 263.33 -21.65 261.28 -21.65 Z M 289.07 -25.5 L 289.07 -25.5 Q 292.27 -25.5 294.4 -24.15 Q 296.52 -22.8 297.55 -20.55 Q 298.57 -18.3 298.57 -15.5 L 298.57 -15.5 Q 298.57 -14.75 298.5 -13.95 Q 298.42 -13.15 298.27 -12.35 L 298.27 -12.35 L 282.72 -12.35 Q 282.72 -7.9 284.72 -5.5 Q 286.72 -3.1 290.07 -3.1 L 290.07 -3.1 Q 291.52 -3.1 293.12 -3.58 Q 294.72 -4.05 296.47 -5 L 296.47 -5 L 298.07 -2.15 Q 296.32 -0.75 293.97 -0.08 Q 291.62 0.6 289.42 0.6 L 289.42 0.6 Q 285.52 0.6 282.87 -1.15 Q 280.22 -2.9 278.85 -5.8 Q 277.47 -8.7 277.47 -12.2 L 277.47 -12.2 Q 277.47 -14.75 278.22 -17.13 Q 278.97 -19.5 280.45 -21.4 Q 281.92 -23.3 284.07 -24.4 Q 286.22 -25.5 289.07 -25.5 Z M 288.72 -21.95 L 288.72 -21.95 Q 287.07 -21.95 285.85 -21.03 Q 284.62 -20.1 283.9 -18.68 Q 283.17 -17.25 282.97 -15.8 L 282.97 -15.8 L 293.42 -15.8 Q 293.57 -17.6 293.05 -19 Q 292.52 -20.4 291.42 -21.18 Q 290.32 -21.95 288.72 -21.95 Z M 315.77 -33.3 L 315.07 -36.5 L 337.37 -36.5 L 337.37 -32.4 L 321.37 -32.4 L 321.37 -20.8 L 333.72 -20.8 L 333.72 -16.75 L 321.37 -16.75 L 321.37 -4.1 L 337.37 -4.1 L 337.37 0 L 315.77 0 L 315.77 -33.3 Z M 351.96 -25.45 L 351.96 -25.45 Q 355.96 -25.45 358.04 -23.35 Q 360.12 -21.25 360.12 -17.3 L 360.12 -17.3 L 360.12 -5.45 Q 360.12 -4.25 360.54 -3.83 Q 360.96 -3.4 361.56 -3.4 L 361.56 -3.4 Q 362.01 -3.4 362.51 -3.53 Q 363.01 -3.65 363.46 -3.85 L 363.46 -3.85 L 364.42 -0.85 Q 363.46 -0.3 362.17 0.08 Q 360.87 0.45 359.67 0.45 L 359.67 0.45 Q 358.12 0.45 357.04 -0.3 Q 355.96 -1.05 355.67 -2.95 L 355.67 -2.95 Q 354.21 -1.25 352.29 -0.35 Q 350.37 0.55 348.17 0.55 L 348.17 0.55 Q 345.21 0.55 343.21 -1.18 Q 341.21 -2.9 341.21 -5.95 L 341.21 -5.95 Q 341.21 -8.7 342.54 -10.43 Q 343.87 -12.15 346.01 -13.03 Q 348.17 -13.9 350.59 -14.23 Q 353.01 -14.55 355.17 -14.55 L 355.17 -14.55 L 355.17 -17.45 Q 355.17 -19.5 354.31 -20.65 Q 353.46 -21.8 351.26 -21.8 L 351.26 -21.8 Q 349.46 -21.8 347.71 -20.98 Q 345.96 -20.15 344.42 -18.9 L 344.42 -18.9 L 342.21 -22.25 Q 344.31 -23.85 346.84 -24.65 Q 349.37 -25.45 351.96 -25.45 Z M 355.17 -9.55 L 355.17 -10.95 Q 353.96 -10.95 352.44 -10.83 Q 350.92 -10.7 349.51 -10.28 Q 348.12 -9.85 347.21 -8.9 Q 346.31 -7.95 346.31 -6.3 L 346.31 -6.3 Q 346.31 -4.85 347.37 -4.13 Q 348.42 -3.4 349.81 -3.4 L 349.81 -3.4 Q 351.46 -3.4 352.64 -4.33 Q 353.81 -5.25 354.49 -6.65 Q 355.17 -8.05 355.17 -9.55 L 355.17 -9.55 Z M 376.11 -25.45 L 376.11 -25.45 Q 377.86 -25.45 379.69 -25.05 Q 381.51 -24.65 382.96 -23.8 L 382.96 -23.8 L 381.21 -20.2 Q 380.16 -21.05 378.84 -21.5 Q 377.51 -21.95 376.21 -21.95 L 376.21 -21.95 Q 374.61 -21.95 373.36 -21.2 Q 372.11 -20.45 372.11 -18.85 L 372.11 -18.85 Q 372.11 -17.25 373.21 -16.45 Q 374.31 -15.65 375.86 -14.95 L 375.86 -14.95 Q 377.11 -14.4 378.39 -13.8 Q 379.66 -13.2 380.76 -12.35 Q 381.86 -11.5 382.56 -10.25 Q 383.26 -9 383.26 -7.1 L 383.26 -7.1 Q 383.26 -4.5 381.96 -2.78 Q 380.66 -1.05 378.59 -0.2 Q 376.51 0.65 374.11 0.65 L 374.11 0.65 Q 372.11 0.65 369.99 0.1 Q 367.86 -0.45 366.16 -1.45 L 366.16 -1.45 L 368.06 -4.95 Q 369.31 -4.1 370.79 -3.53 Q 372.26 -2.95 373.71 -2.95 L 373.71 -2.95 Q 375.41 -2.95 376.71 -3.8 Q 378.01 -4.65 378.01 -6.35 L 378.01 -6.35 Q 378.01 -7.55 377.34 -8.33 Q 376.66 -9.1 375.56 -9.68 Q 374.46 -10.25 373.21 -10.75 L 373.21 -10.75 Q 371.71 -11.45 370.26 -12.28 Q 368.81 -13.1 367.86 -14.45 Q 366.91 -15.8 366.91 -18 L 366.91 -18 Q 366.91 -20.5 368.24 -22.15 Q 369.56 -23.8 371.69 -24.63 Q 373.81 -25.45 376.11 -25.45 Z M 385.81 -24.85 L 391.16 -24.85 Q 392.26 -21.6 393.44 -18.38 Q 394.61 -15.15 395.71 -11.75 L 395.71 -11.75 Q 396.11 -10.45 396.51 -9.03 Q 396.91 -7.6 397.31 -6.25 L 397.31 -6.25 Q 397.66 -7.6 398.06 -9.03 Q 398.46 -10.45 398.91 -11.75 L 398.91 -11.75 Q 400.01 -15.15 401.16 -18.38 Q 402.31 -21.6 403.41 -24.85 L 403.41 -24.85 L 408.01 -24.85 L 399.16 0.1 Q 398.61 1.8 397.71 3.7 Q 396.81 5.6 395.58 7.23 Q 394.36 8.85 392.74 9.9 Q 391.11 10.95 389.06 10.95 L 389.06 10.95 L 387.16 10.95 L 387.16 7.2 Q 387.41 7.25 387.61 7.25 Q 387.81 7.25 388.06 7.25 L 388.06 7.25 Q 390.06 7.25 391.36 6.05 Q 392.66 4.85 393.51 3.15 Q 394.36 1.45 394.86 -0.15 L 394.86 -0.15 L 385.81 -24.85 Z" stroke-linecap="round" />
</g>
		<g transform="matrix(2.95 0 0 2.95 0 -109.03)"  >
<path style="stroke: rgb(255,255,255); stroke-opacity: 0; stroke-width: 1; stroke-dasharray: none; stroke-linecap: butt; stroke-dashoffset: 0; stroke-linejoin: miter; stroke-miterlimit: 4; fill: rgb(0,243,249); fill-rule: nonzero; opacity: 1;" vector-effect="non-scaling-stroke"  transform=" translate(-65.11, -65.11)" d="M 0 65.106 C 0 29.148999999999994 29.149 0 65.106 0 C 101.06299999999999 0 130.212 29.149 130.213 65.106 C 130.213 101.06299999999999 101.064 130.212 65.106 130.213 C 29.148999999999994 130.213 0 101.064 0 65.106 z M 65.106 127.213 C 99.40599999999999 127.213 127.21199999999999 99.407 127.213 65.106 C 127.213 30.805999999999997 99.407 2.999999999999993 65.106 2.999999999999993 C 30.805999999999997 2.999999999999993 2.999999999999993 30.805999999999994 2.999999999999993 65.106 C 2.999999999999993 99.40599999999999 30.805999999999994 127.21199999999999 65.106 127.213 z" stroke-linecap="round" />
</g>
		<g transform="matrix(3.91 0 0 3.91 -44.04 -202.98)"  >
<path style="stroke: none; stroke-width: 1; stroke-dasharray: none; stroke-linecap: butt; stroke-dashoffset: 0; stroke-linejoin: miter; stroke-miterlimit: 4; fill: rgb(0,243,249); fill-rule: nonzero; opacity: 1;" vector-effect="non-scaling-stroke"  transform=" translate(-20.75, -7.95)" d="M 34.7 11.4 L 34.7 11.4 L 34.7 11.4 L 20.6 2.5 L 6.7 11.4 L 6.7 11.4 L 6.7 11.4 L 5.9 11.9 L 6.7 11.9 L 6.7 13.4 L 34.800000000000004 13.4 L 34.800000000000004 11.9 L 35.6 11.9 L 34.7 11.4 z M 20.7 10.2 C 19.5 10.2 18.5 9.2 18.5 7.999999999999999 C 18.5 6.799999999999999 19.5 5.799999999999999 20.7 5.799999999999999 C 21.9 5.799999999999999 22.9 6.799999999999999 22.9 7.999999999999999 C 22.9 9.2 21.9 10.2 20.7 10.2 z" stroke-linecap="round" />
</g>
		<g transform="matrix(3.91 0 0 3.91 -44.43 -147.12)"  >
<path style="stroke: none; stroke-width: 1; stroke-dasharray: none; stroke-linecap: butt; stroke-dashoffset: 0; stroke-linejoin: miter; stroke-miterlimit: 4; fill: rgb(0,243,249); fill-rule: nonzero; opacity: 1;" vector-effect="non-scaling-stroke"  transform=" translate(-20.65, -22.25)" d="M 34.7 28.6 L 34.7 15.1 L 6.7 15.1 L 6.7 28.6 L 5.8 28.6 L 5.8 29.400000000000002 L 35.5 29.400000000000002 L 35.5 28.6 L 34.7 28.6 z M 9.8 28.6 L 9.8 18.5 C 9.8 18 10.200000000000001 17.7 10.600000000000001 17.7 C 11.100000000000001 17.7 11.400000000000002 18.099999999999998 11.400000000000002 18.5 L 11.400000000000002 28.6 L 9.8 28.6 z M 14.8 28.6 L 14.8 18.5 C 14.8 18 15.200000000000001 17.7 15.600000000000001 17.7 C 16.1 17.7 16.400000000000002 18.099999999999998 16.400000000000002 18.5 L 16.400000000000002 28.6 L 14.8 28.6 z M 24.9 28.6 L 24.9 18.5 C 24.9 18 25.299999999999997 17.7 25.7 17.7 C 26.1 17.7 26.5 18.099999999999998 26.5 18.5 L 26.5 28.6 L 24.9 28.6 z M 29.9 28.6 L 29.9 18.5 C 29.9 18 30.299999999999997 17.7 30.7 17.7 C 31.1 17.7 31.5 18.099999999999998 31.5 18.5 L 31.5 28.6 L 29.9 28.6 z" stroke-linecap="round" />
</g>
		<g transform="matrix(3.91 0 0 3.91 -44.24 -114.11)"  >
<rect style="stroke: none; stroke-width: 1; stroke-dasharray: none; stroke-linecap: butt; stroke-dashoffset: 0; stroke-linejoin: miter; stroke-miterlimit: 4; fill: rgb(0,243,249); fill-rule: nonzero; opacity: 1;" vector-effect="non-scaling-stroke"  x="-16.1" y="-0.4" rx="0" ry="0" width="32.2" height="0.8" />
</g>
		<g transform="matrix(3.91 0 0 3.91 -44.43 -107.86)"  >
<rect style="stroke: none; stroke-width: 1; stroke-dasharray: none; stroke-linecap: butt; stroke-dashoffset: 0; stroke-linejoin: miter; stroke-miterlimit: 4; fill: rgb(0,243,249); fill-rule: nonzero; opacity: 1;" vector-effect="non-scaling-stroke"  x="-16.75" y="-0.4" rx="0" ry="0" width="33.5" height="0.8" />
</g>
		<g transform="matrix(3.91 0 0 3.91 42.3 -47.3)"  >
<path style="stroke: none; stroke-width: 1; stroke-dasharray: none; stroke-linecap: butt; stroke-dashoffset: 0; stroke-linejoin: miter; stroke-miterlimit: 4; fill: rgb(0,243,249); fill-rule: nonzero; opacity: 1;" vector-effect="non-scaling-stroke"  transform=" translate(-42.85, -47.8)" d="M 45.5 48.1 C 45.3 47.9 45.1 47.7 44.8 47.5 C 44.5 47.3 44.199999999999996 47.2 43.8 47 C 43.699999999999996 47 43.599999999999994 46.9 43.5 46.9 C 43.3 46.8 43.2 46.8 43.1 46.699999999999996 C 42.9 46.599999999999994 42.7 46.49999999999999 42.6 46.4 C 42.6 46.4 42.6 46.4 42.6 46.4 C 42.5 46.3 42.300000000000004 46.199999999999996 42.300000000000004 46.1 C 42.2 46 42.2 45.9 42.2 45.7 C 42.2 45.6 42.2 45.400000000000006 42.300000000000004 45.300000000000004 C 42.400000000000006 45.2 42.50000000000001 45.1 42.6 45.00000000000001 C 42.6 45.00000000000001 42.6 45.00000000000001 42.7 45.00000000000001 C 42.800000000000004 44.900000000000006 43 44.900000000000006 43.1 44.900000000000006 C 43.300000000000004 44.900000000000006 43.4 44.800000000000004 43.6 44.800000000000004 C 43.6 44.800000000000004 43.6 44.800000000000004 43.7 44.800000000000004 C 43.900000000000006 44.800000000000004 44 44.800000000000004 44.2 44.800000000000004 C 44.400000000000006 44.800000000000004 44.6 44.900000000000006 44.800000000000004 44.900000000000006 C 45.00000000000001 45.00000000000001 45.2 45.00000000000001 45.300000000000004 45.10000000000001 C 45.50000000000001 45.20000000000001 45.800000000000004 45.00000000000001 45.800000000000004 44.80000000000001 L 45.800000000000004 44.000000000000014 C 45.800000000000004 43.70000000000002 45.6 43.40000000000001 45.300000000000004 43.40000000000001 C 45.1 43.40000000000001 45.00000000000001 43.30000000000001 44.800000000000004 43.30000000000001 C 44.50000000000001 43.20000000000001 44.1 43.20000000000001 43.6 43.20000000000001 L 43.6 42.60000000000001 L 42.6 42.60000000000001 L 42.6 43.30000000000001 C 42.5 43.30000000000001 42.300000000000004 43.30000000000001 42.2 43.40000000000001 C 41.800000000000004 43.500000000000014 41.400000000000006 43.70000000000001 41.1 43.90000000000001 C 40.800000000000004 44.100000000000016 40.5 44.40000000000001 40.300000000000004 44.70000000000001 C 40.1 45.00000000000001 40.00000000000001 45.40000000000001 40.00000000000001 45.90000000000001 C 40.00000000000001 46.500000000000014 40.20000000000001 47.000000000000014 40.50000000000001 47.40000000000001 C 40.800000000000004 47.80000000000001 41.400000000000006 48.20000000000001 42.00000000000001 48.500000000000014 C 42.20000000000001 48.600000000000016 42.300000000000004 48.600000000000016 42.50000000000001 48.70000000000002 C 42.60000000000001 48.70000000000002 42.70000000000001 48.80000000000002 42.800000000000004 48.80000000000002 C 43.00000000000001 48.90000000000002 43.2 49.00000000000002 43.400000000000006 49.100000000000016 C 43.400000000000006 49.100000000000016 43.50000000000001 49.100000000000016 43.50000000000001 49.20000000000002 C 43.60000000000001 49.30000000000002 43.70000000000001 49.40000000000002 43.800000000000004 49.500000000000014 C 43.900000000000006 49.600000000000016 43.900000000000006 49.80000000000001 43.900000000000006 50.000000000000014 C 43.900000000000006 50.100000000000016 43.900000000000006 50.20000000000002 43.800000000000004 50.40000000000001 C 43.7 50.500000000000014 43.6 50.600000000000016 43.50000000000001 50.70000000000001 C 43.50000000000001 50.70000000000001 43.400000000000006 50.70000000000001 43.400000000000006 50.80000000000001 C 43.300000000000004 50.90000000000001 43.2 50.90000000000001 43.00000000000001 50.90000000000001 C 42.800000000000004 50.90000000000001 42.60000000000001 51.000000000000014 42.400000000000006 51.000000000000014 C 42.400000000000006 51.000000000000014 42.300000000000004 51.000000000000014 42.300000000000004 51.000000000000014 C 41.900000000000006 51.000000000000014 41.400000000000006 50.90000000000001 41.00000000000001 50.80000000000001 C 40.800000000000004 50.70000000000001 40.60000000000001 50.60000000000001 40.300000000000004 50.500000000000014 C 40.1 50.40000000000001 39.800000000000004 50.500000000000014 39.800000000000004 50.80000000000001 L 39.800000000000004 51.70000000000001 C 39.800000000000004 52.00000000000001 40.00000000000001 52.20000000000001 40.2 52.30000000000001 C 40.400000000000006 52.40000000000001 40.6 52.40000000000001 40.900000000000006 52.500000000000014 C 41.300000000000004 52.600000000000016 41.800000000000004 52.600000000000016 42.300000000000004 52.600000000000016 L 42.300000000000004 53 L 43.300000000000004 53 L 43.300000000000004 52.3 C 43.400000000000006 52.3 43.6 52.3 43.7 52.199999999999996 C 44.1 52.099999999999994 44.5 51.99999999999999 44.800000000000004 51.8 C 45.1 51.599999999999994 45.400000000000006 51.3 45.6 51 C 45.800000000000004 50.7 45.9 50.3 45.9 49.8 C 45.9 49.4 45.8 49.099999999999994 45.699999999999996 48.9 C 45.9 48.6 45.7 48.3 45.5 48.1 z" stroke-linecap="round" />
</g>
		<g transform="matrix(3.91 0 0 3.91 43.56 -39.88)"  >
<path style="stroke: none; stroke-width: 1; stroke-dasharray: none; stroke-linecap: butt; stroke-dashoffset: 0; stroke-linejoin: miter; stroke-miterlimit: 4; fill: rgb(0,243,249); fill-rule: nonzero; opacity: 1;" vector-effect="non-scaling-stroke"  transform=" translate(-43.17, -49.7)" d="M 59.6 59 C 58.6 57.9 57.6 56.9 56.7 55.8 C 56.7 55.8 56.7 55.8 56.7 55.8 C 56.7 55.3 56.7 54.8 56.7 54.3 C 56.7 54.099999999999994 56.7 53.9 56.7 53.699999999999996 L 56.7 50.199999999999996 C 56.7 47.099999999999994 56.7 43.99999999999999 56.7 40.8 C 56.7 39.099999999999994 55.5 37.9 53.900000000000006 37.9 C 47.10000000000001 37.9 40.10000000000001 37.9 32.400000000000006 37.9 C 32.2 37.9 32.00000000000001 37.9 31.800000000000004 38 C 30.400000000000006 38.3 29.600000000000005 39.4 29.600000000000005 40.9 C 29.600000000000005 43.4 29.600000000000005 45.9 29.600000000000005 48.4 C 29.600000000000005 50.4 29.600000000000005 52.5 29.600000000000005 54.5 C 29.600000000000005 54.7 29.600000000000005 54.8 29.600000000000005 55 C 29.600000000000005 55.3 29.600000000000005 55.6 29.600000000000005 55.8 C 29.500000000000004 56 29.300000000000004 56.199999999999996 29.100000000000005 56.4 C 29.000000000000004 56.5 28.900000000000006 56.6 28.700000000000006 56.8 C 28.100000000000005 57.5 27.500000000000007 58.099999999999994 26.900000000000006 58.8 L 26.600000000000005 59.199999999999996 C 26.200000000000006 59.599999999999994 26.100000000000005 60.099999999999994 26.300000000000004 60.599999999999994 C 26.500000000000004 61.099999999999994 26.900000000000006 61.39999999999999 27.500000000000004 61.49999999999999 C 27.600000000000005 61.49999999999999 27.700000000000003 61.49999999999999 27.800000000000004 61.49999999999999 C 27.800000000000004 61.49999999999999 27.900000000000006 61.49999999999999 27.900000000000006 61.49999999999999 C 27.900000000000006 61.49999999999999 28.000000000000007 61.49999999999999 28.000000000000007 61.49999999999999 C 32.20000000000001 61.49999999999999 36.400000000000006 61.49999999999999 40.7 61.49999999999999 L 46.2 61.49999999999999 C 50.300000000000004 61.49999999999999 54.400000000000006 61.49999999999999 58.6 61.49999999999999 C 58.9 61.49999999999999 59.7 61.49999999999999 60.1 60.599999999999994 C 60.3 59.8 59.8 59.2 59.6 59 z M 32.3 40.8 C 32.3 40.8 32.4 40.8 32.3 40.8 C 39.5 40.8 46.599999999999994 40.8 53.699999999999996 40.8 C 53.699999999999996 40.8 53.8 40.8 53.8 40.8 C 53.8 40.8 53.8 40.9 53.8 40.9 C 53.8 44.6 53.8 48.3 53.8 52 L 53.8 55 L 32.3 55 C 32.3 50.3 32.3 45.6 32.3 41 C 32.3 40.9 32.3 40.8 32.3 40.8 z M 46.7 58.7 C 46.6 58.300000000000004 46.5 58 46.300000000000004 57.6 C 44.1 57.6 42.00000000000001 57.6 39.900000000000006 57.6 C 39.800000000000004 58 39.7 58.300000000000004 39.50000000000001 58.7 C 36.20000000000001 58.7 32.800000000000004 58.7 29.400000000000006 58.7 C 29.500000000000007 58.6 29.500000000000007 58.5 29.600000000000005 58.400000000000006 C 30.200000000000006 57.800000000000004 30.700000000000006 57.2 31.300000000000004 56.60000000000001 C 31.400000000000006 56.50000000000001 31.600000000000005 56.400000000000006 31.700000000000003 56.400000000000006 C 39.2 56.400000000000006 46.7 56.400000000000006 54.2 56.400000000000006 C 54.400000000000006 56.400000000000006 54.6 56.50000000000001 54.7 56.60000000000001 C 55.300000000000004 57.30000000000001 56 58.00000000000001 56.6 58.70000000000001 C 53.4 58.7 50 58.7 46.7 58.7 z" stroke-linecap="round" />
</g>
		<g transform="matrix(3.91 0 0 3.91 -45.41 -73.13)"  >
<path style="stroke: none; stroke-width: 1; stroke-dasharray: none; stroke-linecap: butt; stroke-dashoffset: 0; stroke-linejoin: miter; stroke-miterlimit: 4; fill: rgb(0,243,249); fill-rule: nonzero; opacity: 1;" vector-effect="non-scaling-stroke"  transform=" translate(-20.4, -41.19)" d="M 19.2 37.6 C 19 37.7 18.8 37.800000000000004 18.599999999999998 37.9 C 18.599999999999998 37.9 18.599999999999998 38 18.599999999999998 38 C 19.599999999999998 39.7 20.4 41.4 21.599999999999998 43 C 23.099999999999998 44.8 24.799999999999997 46.3 26.9 47.3 C 26.9 47.3 27 47.3 27 47.4 C 26.8 47.5 26.7 47.5 26.5 47.5 C 23.7 48.1 21 47.8 18.6 46 C 17.5 45.2 16.6 44.1 15.900000000000002 42.8 C 15.500000000000002 42 15.000000000000002 41.199999999999996 14.600000000000001 40.4 C 14.500000000000002 40.3 14.500000000000002 40.199999999999996 14.400000000000002 40.1 C 14.200000000000003 40.2 14.000000000000002 40.300000000000004 13.800000000000002 40.5 C 13.900000000000002 38.5 14.000000000000002 36.6 14.100000000000003 34.6 C 15.9 35.7 17.5 36.6 19.2 37.6 z" stroke-linecap="round" />
</g>
		<g transform="matrix(3.91 0 0 3.91 43.86 -119.29)"  >
<path style="stroke: none; stroke-width: 1; stroke-dasharray: none; stroke-linecap: butt; stroke-dashoffset: 0; stroke-linejoin: miter; stroke-miterlimit: 4; fill: rgb(0,243,249); fill-rule: nonzero; opacity: 1;" vector-effect="non-scaling-stroke"  transform=" translate(-43.25, -29.37)" d="M 44.9 33.1 C 45.1 33 45.3 32.9 45.4 32.800000000000004 C 45.4 32.800000000000004 45.4 32.7 45.4 32.7 C 44.4 31.1 43.4 29.300000000000004 42.1 27.900000000000002 C 40.6 26.1 38.800000000000004 24.700000000000003 36.6 23.800000000000004 C 36.6 23.800000000000004 36.5 23.800000000000004 36.5 23.700000000000003 C 36.7 23.6 36.8 23.6 37 23.500000000000004 C 39.8 22.700000000000003 42.5 22.900000000000002 45 24.600000000000005 C 46.2 25.400000000000006 47.1 26.500000000000004 47.8 27.600000000000005 C 48.3 28.400000000000006 48.8 29.100000000000005 49.199999999999996 29.900000000000006 C 49.3 30.000000000000007 49.3 30.100000000000005 49.4 30.200000000000006 C 49.6 30.100000000000005 49.8 30.000000000000007 50 29.800000000000008 C 50 31.800000000000008 50 33.70000000000001 50 35.70000000000001 C 48.3 34.9 46.7 34 44.9 33.1 z" stroke-linecap="round" />
</g>
		<g transform="matrix(3.35 0 0 3.35 0 0)"  >
<rect style="stroke: none; stroke-width: 1; stroke-dasharray: none; stroke-linecap: butt; stroke-dashoffset: 0; stroke-linejoin: miter; stroke-miterlimit: 4; fill: none; fill-rule: nonzero; opacity: 1;" vector-effect="non-scaling-stroke"  x="-224" y="-180" rx="0" ry="0" width="448" height="360" />
</g>
</g>
</g>
</svg>