<svg xmlns="http://www.w3.org/2000/svg" version="1.1" xmlns:xlink="http://www.w3.org/1999/xlink" xmlns:svgjs="http://svgjs.dev/svgjs" width="2000" height="1607" viewBox="0 0 2000 1607"><g transform="matrix(1,0,0,1,0,0.5313875848552243)"><svg viewBox="0 0 448 360" data-background-color="#010536" preserveAspectRatio="xMidYMid meet" height="1607" width="2000" xmlns="http://www.w3.org/2000/svg" xmlns:xlink="http://www.w3.org/1999/xlink"><g id="tight-bounds" transform="matrix(1,0,0,1,0,-0.11904140046539169)"><svg viewBox="0 0 448 360" height="360" width="448"><g><svg></svg></g><g><svg viewBox="0 0 448 360" height="360" width="448"><g><path transform="translate(36.9151,-7.08178) scale(0.00624,0.00624)" d="M25167 8301c221 0 400 179 400 400 0 221-179 400-400 400h-3824l-2753 2753c-156 156-409 156-566 0-156-156-156-409 0-566l2188-2188h-6475c-1847 0-3071 431-3819 1301-760 885-1068 2254-1068 4110 0 11 0 22-1 33l34 5884 2356-2356c156-156 409-156 566 0 156 156 156 409 0 566l-2915 2915c33 5746 31 11443-2 17189 4087 4041 8117 8068 12157 12154h4070c221 0 400 179 400 400 0 221-179 400-400 400h-3279l4160 4208 1-1c1313 1313 2498 2062 3660 2151 1146 87 2316-474 3622-1779l4579-4579h-3323c-221 0-400-179-400-400 0-221 179-400 400-400h4123l2666-2666c156-156 409-156 566 0 156 156 156 409 0 566l-2101 2101h6475c1847 0 3071-431 3819-1301 760-885 1068-2254 1068-4110h2l-34-5917-2568 2568c-156 156-409 156-566 0-156-156-156-409 0-566l3127-3127c-33-5746-31-11443 2-17189-4087-4041-8117-8068-12157-12154h-4193c-221 0-400-179-400-400 0-221 179-400 400-400h3402l-4141-4189c-7-6-13-12-20-18-1313-1313-2498-2062-3660-2151-1146-87-2316 474-3622 1779l-4579 4579h3024zM13737 8301h7275l5144-5144c1483-1483 2856-2116 4247-2010 1374 104 2719 934 4167 2382 8 8 15 15 22 23l4695 4749h6977c2096 0 3515 524 4425 1583 898 1045 1261 2582 1261 4629 0 13-1 25-2 37l-36 6373 4559 4508 1-1c1448 1448 2278 2792 2382 4167 106 1391-528 2764-2010 4247l-4934 4934 38 6710h2c0 2047-364 3584-1261 4629-910 1059-2329 1583-4425 1583h-7275l-5144 5144c-1483 1483-2856 2116-4247 2010-1374-104-2719-934-4167-2382l1-1-4718-4772h-6977c-2096 0-3515-524-4425-1583-898-1045-1261-2582-1261-4629h2l37-6410-4537-4485c-8-7-16-14-23-22-1448-1448-2278-2792-2382-4167-106-1391 528-2764 2010-4247l4934-4934-38-6672c-1-12-2-25-2-37 0-2047 364-3584 1261-4629 910-1059 2329-1583 4425-1583zM8141 30000l-44-7653-4374 4374c-1305 1305-1866 2476-1779 3622 88 1162 838 2348 2151 3660 6 6 13 13 18 20l3983 3937 45-7961zM8882 39860l-32 5627h2c0 1857 308 3226 1068 4110 748 871 1972 1301 3819 1301h6186l-5380-5442-5662-5597zM46264 9101h-6186l5380 5442 5662 5597 32-5594c-1-11-1-22-1-33 0-1857-308-3226-1068-4110-748-871-1972-1301-3819-1301zM51906 22039l-45 7961 44 7653 4374-4374c1305-1305 1866-2476 1779-3622-88-1163-838-2348-2151-3660l1-1-4002-3956z" fill="#000000" fill-rule="nonzero" stroke="none" stroke-width="1" stroke-linecap="butt" stroke-linejoin="miter" stroke-miterlimit="10" stroke-dasharray="" stroke-dashoffset="0" font-family="none" font-weight="none" font-size="none" text-anchor="none" style="mix-blend-mode: normal" data-fill-palette-color="tertiary"></path></g><g transform="matrix(1,0,0,1,125.19909958282938,90)"><svg viewBox="0 0 197.60180083434125 180" height="180" width="197.60180083434125"><g><svg viewBox="0 0 224 204.04672340917645" height="180" width="197.60180083434125"><g transform="matrix(1,0,0,1,0,145.91906990976742)"><svg viewBox="0 0 224 58.127653499409035" height="58.127653499409035" width="224"><g id="textblocktransform"><svg viewBox="0 0 224 58.127653499409035" height="58.127653499409035" width="224" id="textblock"><g><svg viewBox="0 0 224 33.26537785588752" height="33.26537785588752" width="224"><g transform="matrix(1,0,0,1,0,0)"><svg width="224" viewBox="3.85 -33.2 227.58 33.800000000000004" height="33.26537785588752" data-palette-color="#0cf348"><g class="undefined-text-0" data-fill-palette-color="primary" id="text-0"><path d="M15.95 0L3.85 0 3.85-32.6 15-32.6Q17.55-32.6 19.73-32.23 21.9-31.85 23.53-30.9 25.15-29.95 26.08-28.4 27-26.85 27-24.5L27-24.5Q27-23.4 26.7-22.3 26.4-21.2 25.85-20.25 25.3-19.3 24.53-18.55 23.75-17.8 22.75-17.45L22.75-17.45 22.75-17.25Q24-16.95 25.05-16.32 26.1-15.7 26.9-14.75 27.7-13.8 28.15-12.53 28.6-11.25 28.6-9.6L28.6-9.6Q28.6-7.1 27.63-5.3 26.65-3.5 24.93-2.33 23.2-1.15 20.9-0.58 18.6 0 15.95 0L15.95 0ZM11.2-26.9L11.2-19.55 14.65-19.55Q17.35-19.55 18.57-20.6 19.8-21.65 19.8-23.4L19.8-23.4Q19.8-25.3 18.55-26.1 17.3-26.9 14.7-26.9L14.7-26.9 11.2-26.9ZM11.2-14.1L11.2-5.7 15.35-5.7Q21.4-5.7 21.4-10.1L21.4-10.1Q21.4-12.25 19.9-13.18 18.4-14.1 15.35-14.1L15.35-14.1 11.2-14.1ZM41.75-16.5L41.75-16.5 40.95-13.5 47.9-13.5 47.15-16.5Q46.45-18.95 45.8-21.7 45.15-24.45 44.5-27L44.5-27 44.3-27Q43.7-24.4 43.07-21.68 42.45-18.95 41.75-16.5ZM37.45 0L29.95 0 40.15-32.6 49-32.6 59.2 0 51.4 0 49.4-7.75 39.45-7.75 37.45 0ZM69.75 0L62.75 0 62.75-32.6 70.3-32.6 78.8-16.4 82-9.2 82.2-9.2Q81.95-11.8 81.62-15 81.3-18.2 81.3-21.1L81.3-21.1 81.3-32.6 88.3-32.6 88.3 0 80.75 0 72.25-16.25 69.05-23.35 68.84-23.35Q69.09-20.65 69.42-17.55 69.75-14.45 69.75-11.55L69.75-11.55 69.75 0ZM103.34 0L95.99 0 95.99-32.6 103.34-32.6 103.34-19.25 103.54-19.25 113.24-32.6 121.34-32.6 111.49-19.6 123.14 0 115.09 0 107.14-13.75 103.34-8.75 103.34 0ZM147.59 0L126.69 0 126.69-32.6 147.09-32.6 147.09-26.4 134.04-26.4 134.04-19.85 145.14-19.85 145.14-13.7 134.04-13.7 134.04-6.2 147.59-6.2 147.59 0ZM161.74-16.5L161.74-16.5 160.94-13.5 167.89-13.5 167.14-16.5Q166.44-18.95 165.79-21.7 165.14-24.45 164.49-27L164.49-27 164.29-27Q163.69-24.4 163.06-21.68 162.44-18.95 161.74-16.5ZM157.44 0L149.94 0 160.14-32.6 168.99-32.6 179.19 0 171.39 0 169.39-7.75 159.44-7.75 157.44 0ZM192.69 0.6L192.69 0.6Q189.49 0.6 186.31-0.58 183.14-1.75 180.64-4.1L180.64-4.1 184.84-9.15Q186.59-7.65 188.71-6.7 190.84-5.75 192.89-5.75L192.89-5.75Q195.19-5.75 196.31-6.6 197.44-7.45 197.44-8.9L197.44-8.9Q197.44-9.65 197.11-10.2 196.79-10.75 196.16-11.18 195.54-11.6 194.66-11.98 193.79-12.35 192.74-12.8L192.74-12.8 188.49-14.6Q187.24-15.1 186.06-15.9 184.89-16.7 183.96-17.78 183.04-18.85 182.49-20.28 181.94-21.7 181.94-23.5L181.94-23.5Q181.94-25.5 182.79-27.28 183.64-29.05 185.19-30.38 186.74-31.7 188.86-32.45 190.99-33.2 193.54-33.2L193.54-33.2Q196.39-33.2 199.16-32.1 201.94-31 204.04-28.9L204.04-28.9 200.29-24.25Q198.69-25.5 197.09-26.18 195.49-26.85 193.54-26.85L193.54-26.85Q191.64-26.85 190.51-26.08 189.39-25.3 189.39-23.9L189.39-23.9Q189.39-23.15 189.76-22.63 190.14-22.1 190.81-21.68 191.49-21.25 192.39-20.88 193.29-20.5 194.34-20.05L194.34-20.05 198.54-18.35Q201.54-17.15 203.26-15.05 204.99-12.95 204.99-9.5L204.99-9.5Q204.99-7.45 204.16-5.63 203.34-3.8 201.76-2.43 200.19-1.05 197.89-0.23 195.59 0.6 192.69 0.6ZM231.43 0L210.53 0 210.53-32.6 230.93-32.6 230.93-26.4 217.88-26.4 217.88-19.85 228.98-19.85 228.98-13.7 217.88-13.7 217.88-6.2 231.43-6.2 231.43 0Z" fill="#000000" data-fill-palette-color="primary"></path></g></svg></g></svg></g><g transform="matrix(1,0,0,1,42.784000000000006,41.118535198594024)"><svg viewBox="0 0 138.432 17.009118300815015" height="17.009118300815015" width="138.432"><g transform="matrix(1,0,0,1,0,0)"><svg width="138.432" viewBox="3.15 -38.25 404.86 49.75" height="17.009118300815015" data-palette-color="#fbfbf8"><path d="M27.1-28L27.1-28Q27.1-26 26.28-24.28 25.45-22.55 23.93-21.38 22.4-20.2 20.4-19.9L20.4-19.9Q22.9-19.5 24.78-18.15 26.65-16.8 27.73-14.75 28.8-12.7 28.8-10.2L28.8-10.2Q28.8-7.1 27.63-5.13 26.45-3.15 24.45-2.02 22.45-0.9 20-0.45 17.55 0 15 0L15 0 3.85 0 3.85-33.3Q3.85-33.35 3.68-34.08 3.5-34.8 3.35-35.58 3.2-36.35 3.15-36.5L3.15-36.5 15.7-36.5Q17.85-36.5 19.88-36.13 21.9-35.75 23.55-34.8 25.2-33.85 26.15-32.2 27.1-30.55 27.1-28ZM21.25-27.55L21.25-27.55Q21.25-29.35 20.48-30.43 19.7-31.5 18.38-31.95 17.05-32.4 15.4-32.4L15.4-32.4 9.45-32.4 9.45-21.75 14.75-21.75Q17.65-21.75 19.45-23.13 21.25-24.5 21.25-27.55ZM22.85-10.95L22.85-10.95Q22.85-13.35 21.6-14.85 20.35-16.35 18.4-17 16.45-17.65 14.3-17.65L14.3-17.65 9.45-17.65 9.45-4.1 15-4.1Q17.3-4.1 19.07-4.75 20.85-5.4 21.85-6.93 22.85-8.45 22.85-10.95ZM43.35-25.45L43.35-25.45Q47.35-25.45 49.42-23.35 51.5-21.25 51.5-17.3L51.5-17.3 51.5-5.45Q51.5-4.25 51.92-3.83 52.35-3.4 52.95-3.4L52.95-3.4Q53.4-3.4 53.9-3.53 54.4-3.65 54.85-3.85L54.85-3.85 55.8-0.85Q54.85-0.3 53.55 0.08 52.25 0.45 51.05 0.45L51.05 0.45Q49.5 0.45 48.42-0.3 47.35-1.05 47.05-2.95L47.05-2.95Q45.6-1.25 43.67-0.35 41.75 0.55 39.55 0.55L39.55 0.55Q36.6 0.55 34.6-1.18 32.6-2.9 32.6-5.95L32.6-5.95Q32.6-8.7 33.92-10.43 35.25-12.15 37.4-13.03 39.55-13.9 41.97-14.23 44.4-14.55 46.55-14.55L46.55-14.55 46.55-17.45Q46.55-19.5 45.7-20.65 44.85-21.8 42.65-21.8L42.65-21.8Q40.85-21.8 39.1-20.98 37.35-20.15 35.8-18.9L35.8-18.9 33.6-22.25Q35.7-23.85 38.22-24.65 40.75-25.45 43.35-25.45ZM46.55-9.55L46.55-10.95Q45.35-10.95 43.82-10.83 42.3-10.7 40.9-10.28 39.5-9.85 38.6-8.9 37.7-7.95 37.7-6.3L37.7-6.3Q37.7-4.85 38.75-4.13 39.8-3.4 41.2-3.4L41.2-3.4Q42.85-3.4 44.02-4.33 45.2-5.25 45.87-6.65 46.55-8.05 46.55-9.55L46.55-9.55ZM57.65-24.65L62.95-25.3Q63.3-24.5 63.52-23.63 63.75-22.75 63.85-21.9L63.85-21.9Q65.35-23.35 67.4-24.43 69.45-25.5 71.55-25.5L71.55-25.5Q74.35-25.5 76-24.38 77.65-23.25 78.35-21.28 79.05-19.3 79.05-16.7L79.05-16.7 79.05 0 74.15 0 74.15-15.65Q74.15-17.05 73.95-18.35 73.75-19.65 72.95-20.5 72.15-21.35 70.4-21.35L70.4-21.35Q69.35-21.35 68.17-20.88 67-20.4 65.97-19.73 64.95-19.05 64.15-18.3L64.15-18.3 64.15 0 59.25 0 59.25-17.7Q59.25-18.65 59.12-19.98 59-21.3 58.65-22.58 58.3-23.85 57.65-24.65L57.65-24.65ZM85.89-38.25L91.49-38.25 91.49-14.6 100.14-24.85 105.19-24.85 96.24-14.4 106.59 0 100.84 0 91.49-13.2 91.49 0 86.54 0 86.54-35.4 85.89-38.25ZM115.54-33.5L115.54-33.5Q115.54-32.1 114.59-31.1 113.64-30.1 112.19-30.1L112.19-30.1Q110.79-30.1 109.82-31.1 108.84-32.1 108.84-33.5L108.84-33.5Q108.84-34.9 109.82-35.88 110.79-36.85 112.19-36.85L112.19-36.85Q113.59-36.85 114.57-35.88 115.54-34.9 115.54-33.5ZM109.14-24.85L114.69-24.85 114.69 0 109.74 0 109.74-22 109.14-24.85ZM120.74-24.65L126.04-25.3Q126.39-24.5 126.61-23.63 126.84-22.75 126.94-21.9L126.94-21.9Q128.44-23.35 130.49-24.43 132.54-25.5 134.64-25.5L134.64-25.5Q137.44-25.5 139.09-24.38 140.74-23.25 141.44-21.28 142.14-19.3 142.14-16.7L142.14-16.7 142.14 0 137.24 0 137.24-15.65Q137.24-17.05 137.04-18.35 136.84-19.65 136.04-20.5 135.24-21.35 133.49-21.35L133.49-21.35Q132.44-21.35 131.26-20.88 130.09-20.4 129.06-19.73 128.04-19.05 127.24-18.3L127.24-18.3 127.24 0 122.34 0 122.34-17.7Q122.34-18.65 122.21-19.98 122.09-21.3 121.74-22.58 121.39-23.85 120.74-24.65L120.74-24.65ZM156.78-25.5L156.78-25.5Q158.28-25.5 159.56-25.15 160.84-24.8 162.24-24.8L162.24-24.8Q164.24-24.8 166.34-25 168.44-25.2 170.59-25.45L170.59-25.45 169.59-21.65 165.49-21.65Q165.19-21.65 164.84-21.7 164.49-21.75 164.19-21.8L164.19-21.8Q164.99-20.7 165.41-19.53 165.84-18.35 165.84-17.05L165.84-17.05Q165.84-14.5 164.64-12.53 163.44-10.55 161.28-9.45 159.14-8.35 156.28-8.35L156.28-8.35Q155.19-8.35 154.34-7.7 153.49-7.05 153.49-5.85L153.49-5.85Q153.49-5.05 154.01-4.67 154.53-4.3 155.34-4.23 156.14-4.15 156.99-4.15L156.99-4.15 160.74-4.15Q162.14-4.15 163.61-4 165.09-3.85 166.29-3.3 167.49-2.75 168.26-1.68 169.04-0.6 169.04 1.25L169.04 1.25Q169.04 3.95 167.86 5.9 166.69 7.85 164.78 9.1 162.89 10.35 160.53 10.93 158.19 11.5 155.84 11.5L155.84 11.5Q154.39 11.5 152.76 11.2 151.14 10.9 149.69 10.2 148.24 9.5 147.34 8.3 146.44 7.1 146.44 5.2L146.44 5.2Q146.44 3.2 147.69 1.65 148.94 0.1 150.53-0.85L150.53-0.85 150.53-1Q149.53-1.45 148.89-2.43 148.24-3.4 148.24-4.5L148.24-4.5Q148.24-5.1 148.76-5.65 149.28-6.2 150.09-7.13 150.89-8.05 151.84-9.7L151.84-9.7Q149.94-10.85 148.84-12.73 147.74-14.6 147.74-16.9L147.74-16.9Q147.74-19.4 148.96-21.35 150.19-23.3 152.28-24.4 154.39-25.5 156.78-25.5ZM156.78-22.2L156.78-22.2Q155.09-22.2 153.99-20.63 152.89-19.05 152.89-16.85L152.89-16.85Q152.89-14.6 153.99-13.05 155.09-11.5 156.78-11.5L156.78-11.5Q158.59-11.5 159.66-13 160.74-14.5 160.74-16.8L160.74-16.8Q160.74-19.05 159.61-20.63 158.49-22.2 156.78-22.2ZM159.39 0.05L153.99 0.05Q153.03 0.65 152.26 1.85 151.49 3.05 151.49 4.25L151.49 4.25Q151.49 5.4 152.34 6.2 153.19 7 154.36 7.35 155.53 7.7 156.59 7.7L156.59 7.7Q158.24 7.7 160.06 7.28 161.89 6.85 163.14 5.73 164.39 4.6 164.39 2.65L164.39 2.65Q164.39 1.4 163.59 0.85 162.78 0.3 161.61 0.18 160.44 0.05 159.39 0.05L159.39 0.05ZM184.43-36.5L192.38-36.5 200.78-13.95Q201.28-12.6 201.66-11.28 202.03-9.95 202.43-8.4L202.43-8.4Q202.83-9.95 203.16-11.2 203.48-12.45 203.93-13.8L203.93-13.8 212.28-36.5 219.48-36.5 219.48 0 213.98 0 213.98-25.7Q213.98-26.6 214.03-27.5 214.08-28.4 214.13-29.35L214.13-29.35Q213.83-28.5 213.53-27.63 213.23-26.75 212.88-25.9L212.88-25.9 203.43 0.05 200.28 0.05 190.68-26.05Q190.38-26.85 190.06-27.7 189.73-28.55 189.48-29.35L189.48-29.35Q189.53-28.45 189.61-27.6 189.68-26.75 189.68-25.85L189.68-25.85 189.68 0 185.18 0 185.18-33.3 184.43-36.5ZM235.73-25.45L235.73-25.45Q239.73-25.45 241.8-23.35 243.88-21.25 243.88-17.3L243.88-17.3 243.88-5.45Q243.88-4.25 244.3-3.83 244.73-3.4 245.33-3.4L245.33-3.4Q245.78-3.4 246.28-3.53 246.78-3.65 247.23-3.85L247.23-3.85 248.18-0.85Q247.23-0.3 245.93 0.08 244.63 0.45 243.43 0.45L243.43 0.45Q241.88 0.45 240.8-0.3 239.73-1.05 239.43-2.95L239.43-2.95Q237.98-1.25 236.05-0.35 234.13 0.55 231.93 0.55L231.93 0.55Q228.98 0.55 226.98-1.18 224.98-2.9 224.98-5.95L224.98-5.95Q224.98-8.7 226.3-10.43 227.63-12.15 229.78-13.03 231.93-13.9 234.35-14.23 236.78-14.55 238.93-14.55L238.93-14.55 238.93-17.45Q238.93-19.5 238.08-20.65 237.23-21.8 235.03-21.8L235.03-21.8Q233.23-21.8 231.48-20.98 229.73-20.15 228.18-18.9L228.18-18.9 225.98-22.25Q228.08-23.85 230.6-24.65 233.13-25.45 235.73-25.45ZM238.93-9.55L238.93-10.95Q237.73-10.95 236.2-10.83 234.68-10.7 233.28-10.28 231.88-9.85 230.98-8.9 230.08-7.95 230.08-6.3L230.08-6.3Q230.08-4.85 231.13-4.13 232.18-3.4 233.58-3.4L233.58-3.4Q235.23-3.4 236.4-4.33 237.58-5.25 238.25-6.65 238.93-8.05 238.93-9.55L238.93-9.55ZM260.98-25.4L260.98-25.4Q262.53-25.4 264.18-24.93 265.83-24.45 266.98-23.45L266.98-23.45Q266.93-24.25 266.93-24.9 266.93-25.55 266.93-26.3L266.93-26.3 266.93-35.4 266.18-38.25 271.83-38.25 271.83-7.15Q271.83-6.1 271.95-4.8 272.08-3.5 272.4-2.27 272.73-1.05 273.23-0.1L273.23-0.1 268.13 0.45Q267.83-0.35 267.6-1.15 267.38-1.95 267.28-2.8L267.28-2.8Q266.08-1.15 264.1-0.25 262.13 0.65 260.13 0.65L260.13 0.65Q257.48 0.65 255.53-0.45 253.58-1.55 252.28-3.43 250.98-5.3 250.33-7.58 249.68-9.85 249.68-12.2L249.68-12.2Q249.68-15.7 250.93-18.73 252.18-21.75 254.68-23.58 257.18-25.4 260.98-25.4ZM261.28-21.65L261.28-21.65Q259.43-21.65 258.23-20.8 257.03-19.95 256.3-18.57 255.58-17.2 255.28-15.6 254.98-14 254.98-12.5L254.98-12.5Q254.98-10.95 255.3-9.35 255.63-7.75 256.4-6.38 257.18-5 258.45-4.17 259.73-3.35 261.58-3.35L261.58-3.35Q263.13-3.35 264.55-4.28 265.98-5.2 266.93-6.35L266.93-6.35 266.93-14.65Q266.93-16.5 266.38-18.1 265.83-19.7 264.58-20.68 263.33-21.65 261.28-21.65ZM289.07-25.5L289.07-25.5Q292.27-25.5 294.4-24.15 296.52-22.8 297.55-20.55 298.57-18.3 298.57-15.5L298.57-15.5Q298.57-14.75 298.5-13.95 298.42-13.15 298.27-12.35L298.27-12.35 282.72-12.35Q282.72-7.9 284.72-5.5 286.72-3.1 290.07-3.1L290.07-3.1Q291.52-3.1 293.12-3.58 294.72-4.05 296.47-5L296.47-5 298.07-2.15Q296.32-0.75 293.97-0.08 291.62 0.6 289.42 0.6L289.42 0.6Q285.52 0.6 282.87-1.15 280.22-2.9 278.85-5.8 277.47-8.7 277.47-12.2L277.47-12.2Q277.47-14.75 278.22-17.13 278.97-19.5 280.45-21.4 281.92-23.3 284.07-24.4 286.22-25.5 289.07-25.5ZM288.72-21.95L288.72-21.95Q287.07-21.95 285.85-21.03 284.62-20.1 283.9-18.68 283.17-17.25 282.97-15.8L282.97-15.8 293.42-15.8Q293.57-17.6 293.05-19 292.52-20.4 291.42-21.18 290.32-21.95 288.72-21.95ZM315.77-33.3L315.07-36.5 337.37-36.5 337.37-32.4 321.37-32.4 321.37-20.8 333.72-20.8 333.72-16.75 321.37-16.75 321.37-4.1 337.37-4.1 337.37 0 315.77 0 315.77-33.3ZM351.96-25.45L351.96-25.45Q355.96-25.45 358.04-23.35 360.12-21.25 360.12-17.3L360.12-17.3 360.12-5.45Q360.12-4.25 360.54-3.83 360.96-3.4 361.56-3.4L361.56-3.4Q362.01-3.4 362.51-3.53 363.01-3.65 363.46-3.85L363.46-3.85 364.42-0.85Q363.46-0.3 362.17 0.08 360.87 0.45 359.67 0.45L359.67 0.45Q358.12 0.45 357.04-0.3 355.96-1.05 355.67-2.95L355.67-2.95Q354.21-1.25 352.29-0.35 350.37 0.55 348.17 0.55L348.17 0.55Q345.21 0.55 343.21-1.18 341.21-2.9 341.21-5.95L341.21-5.95Q341.21-8.7 342.54-10.43 343.87-12.15 346.01-13.03 348.17-13.9 350.59-14.23 353.01-14.55 355.17-14.55L355.17-14.55 355.17-17.45Q355.17-19.5 354.31-20.65 353.46-21.8 351.26-21.8L351.26-21.8Q349.46-21.8 347.71-20.98 345.96-20.15 344.42-18.9L344.42-18.9 342.21-22.25Q344.31-23.85 346.84-24.65 349.37-25.45 351.96-25.45ZM355.17-9.55L355.17-10.95Q353.96-10.95 352.44-10.83 350.92-10.7 349.51-10.28 348.12-9.85 347.21-8.9 346.31-7.95 346.31-6.3L346.31-6.3Q346.31-4.85 347.37-4.13 348.42-3.4 349.81-3.4L349.81-3.4Q351.46-3.4 352.64-4.33 353.81-5.25 354.49-6.65 355.17-8.05 355.17-9.55L355.17-9.55ZM376.11-25.45L376.11-25.45Q377.86-25.45 379.69-25.05 381.51-24.65 382.96-23.8L382.96-23.8 381.21-20.2Q380.16-21.05 378.84-21.5 377.51-21.95 376.21-21.95L376.21-21.95Q374.61-21.95 373.36-21.2 372.11-20.45 372.11-18.85L372.11-18.85Q372.11-17.25 373.21-16.45 374.31-15.65 375.86-14.95L375.86-14.95Q377.11-14.4 378.39-13.8 379.66-13.2 380.76-12.35 381.86-11.5 382.56-10.25 383.26-9 383.26-7.1L383.26-7.1Q383.26-4.5 381.96-2.78 380.66-1.05 378.59-0.2 376.51 0.65 374.11 0.65L374.11 0.65Q372.11 0.65 369.99 0.1 367.86-0.45 366.16-1.45L366.16-1.45 368.06-4.95Q369.31-4.1 370.79-3.53 372.26-2.95 373.71-2.95L373.71-2.95Q375.41-2.95 376.71-3.8 378.01-4.65 378.01-6.35L378.01-6.35Q378.01-7.55 377.34-8.33 376.66-9.1 375.56-9.68 374.46-10.25 373.21-10.75L373.21-10.75Q371.71-11.45 370.26-12.28 368.81-13.1 367.86-14.45 366.91-15.8 366.91-18L366.91-18Q366.91-20.5 368.24-22.15 369.56-23.8 371.69-24.63 373.81-25.45 376.11-25.45ZM385.81-24.85L391.16-24.85Q392.26-21.6 393.44-18.38 394.61-15.15 395.71-11.75L395.71-11.75Q396.11-10.45 396.51-9.03 396.91-7.6 397.31-6.25L397.31-6.25Q397.66-7.6 398.06-9.03 398.46-10.45 398.91-11.75L398.91-11.75Q400.01-15.15 401.16-18.38 402.31-21.6 403.41-24.85L403.41-24.85 408.01-24.85 399.16 0.1Q398.61 1.8 397.71 3.7 396.81 5.6 395.58 7.23 394.36 8.85 392.74 9.9 391.11 10.95 389.06 10.95L389.06 10.95 387.16 10.95 387.16 7.2Q387.41 7.25 387.61 7.25 387.81 7.25 388.06 7.25L388.06 7.25Q390.06 7.25 391.36 6.05 392.66 4.85 393.51 3.15 394.36 1.45 394.86-0.15L394.86-0.15 385.81-24.85Z" opacity="1" transform="matrix(1,0,0,1,0,0)" fill="#000000" class="undefined-text-1" data-fill-palette-color="secondary" id="text-1"></path></svg></g></svg></g></svg></g></svg></g><g transform="matrix(1,0,0,1,46.89362238782279,0)"><svg viewBox="0 0 130.21275522435442 130.21275522435442" height="130.21275522435442" width="130.21275522435442"><g><svg></svg></g><g id="icon-0"><svg viewBox="0 0 130.21275522435442 130.21275522435442" height="130.21275522435442" width="130.21275522435442"><g><path d="M0 65.106c0-35.957 29.149-65.106 65.106-65.106 35.957 0 65.106 29.149 65.107 65.106 0 35.957-29.149 65.106-65.107 65.107-35.957 0-65.106-29.149-65.106-65.107zM65.106 127.213c34.3 0 62.106-27.806 62.107-62.107 0-34.3-27.806-62.106-62.107-62.106-34.3 0-62.106 27.806-62.106 62.106 0 34.3 27.806 62.106 62.106 62.107z" data-fill-palette-color="accent" fill="#000000" stroke="transparent"></path></g><g transform="matrix(1,0,0,1,27.906004947601033,26.08478075048302)"><svg viewBox="0 0 74.40074532915236 78.04319372338838" height="78.04319372338838" width="74.40074532915236"><g><svg xmlns="http://www.w3.org/2000/svg" xmlns:xlink="http://www.w3.org/1999/xlink" version="1.1" x="0" y="0" viewBox="3.9 2.5 56.246339558813794 58.99999999999999" style="enable-background:new 0 0 64 64;" xml:space="preserve" height="78.04319372338838" width="74.40074532915236" class="icon-g$-0" data-fill-palette-color="accent" id="g$-0"><g fill="#00f3f9" data-fill-palette-color="accent"><g fill="#00f3f9" data-fill-palette-color="accent"><g fill="#00f3f9" data-fill-palette-color="accent"><g fill="#00f3f9" data-fill-palette-color="accent"><path d="M34.7 11.4L34.7 11.4 34.7 11.4 20.6 2.5 6.7 11.4h0v0l-0.8 0.5h0.8v1.5h28.1v-1.5h0.8L34.7 11.4zM20.7 10.2c-1.2 0-2.2-1-2.2-2.2s1-2.2 2.2-2.2c1.2 0 2.2 1 2.2 2.2S21.9 10.2 20.7 10.2z" fill="#000000" data-fill-palette-color="accent"></path><path d="M34.7 28.6V15.1H6.7v13.5H5.8v0.8h29.7v-0.8H34.7zM9.8 28.6V18.5c0-0.5 0.4-0.8 0.8-0.8 0.5 0 0.8 0.4 0.8 0.8v10.1H9.8zM14.8 28.6V18.5c0-0.5 0.4-0.8 0.8-0.8 0.5 0 0.8 0.4 0.8 0.8v10.1H14.8zM24.9 28.6V18.5c0-0.5 0.4-0.8 0.8-0.8s0.8 0.4 0.8 0.8v10.1H24.9zM29.9 28.6V18.5c0-0.5 0.4-0.8 0.8-0.8s0.8 0.4 0.8 0.8v10.1H29.9z" fill="#000000" data-fill-palette-color="accent"></path><rect x="4.6" y="30.3" width="32.2" height="0.8" fill="#000000" data-fill-palette-color="accent"></rect><rect x="3.9" y="31.9" width="33.5" height="0.8" fill="#000000" data-fill-palette-color="accent"></rect></g></g><g fill="#00f3f9" data-fill-palette-color="accent"><path d="M45.5 48.1c-0.2-0.2-0.4-0.4-0.7-0.6-0.3-0.2-0.6-0.3-1-0.5-0.1 0-0.2-0.1-0.3-0.1-0.2-0.1-0.3-0.1-0.4-0.2-0.2-0.1-0.4-0.2-0.5-0.3 0 0 0 0 0 0-0.1-0.1-0.3-0.2-0.3-0.3-0.1-0.1-0.1-0.2-0.1-0.4 0-0.1 0-0.3 0.1-0.4 0.1-0.1 0.2-0.2 0.3-0.3 0 0 0 0 0.1 0 0.1-0.1 0.3-0.1 0.4-0.1 0.2 0 0.3-0.1 0.5-0.1 0 0 0 0 0.1 0 0.2 0 0.3 0 0.5 0 0.2 0 0.4 0.1 0.6 0.1 0.2 0.1 0.4 0.1 0.5 0.2 0.2 0.1 0.5-0.1 0.5-0.3v-0.8c0-0.3-0.2-0.6-0.5-0.6-0.2 0-0.3-0.1-0.5-0.1-0.3-0.1-0.7-0.1-1.2-0.1v-0.6h-1v0.7c-0.1 0-0.3 0-0.4 0.1-0.4 0.1-0.8 0.3-1.1 0.5-0.3 0.2-0.6 0.5-0.8 0.8-0.2 0.3-0.3 0.7-0.3 1.2 0 0.6 0.2 1.1 0.5 1.5 0.3 0.4 0.9 0.8 1.5 1.1 0.2 0.1 0.3 0.1 0.5 0.2 0.1 0 0.2 0.1 0.3 0.1 0.2 0.1 0.4 0.2 0.6 0.3 0 0 0.1 0 0.1 0.1 0.1 0.1 0.2 0.2 0.3 0.3 0.1 0.1 0.1 0.3 0.1 0.5 0 0.1 0 0.2-0.1 0.4-0.1 0.1-0.2 0.2-0.3 0.3 0 0-0.1 0-0.1 0.1-0.1 0.1-0.2 0.1-0.4 0.1-0.2 0-0.4 0.1-0.6 0.1 0 0-0.1 0-0.1 0-0.4 0-0.9-0.1-1.3-0.2-0.2-0.1-0.4-0.2-0.7-0.3-0.2-0.1-0.5 0-0.5 0.3v0.9c0 0.3 0.2 0.5 0.4 0.6 0.2 0.1 0.4 0.1 0.7 0.2 0.4 0.1 0.9 0.1 1.4 0.1V53h1v-0.7c0.1 0 0.3 0 0.4-0.1 0.4-0.1 0.8-0.2 1.1-0.4 0.3-0.2 0.6-0.5 0.8-0.8 0.2-0.3 0.3-0.7 0.3-1.2 0-0.4-0.1-0.7-0.2-0.9C45.9 48.6 45.7 48.3 45.5 48.1z" fill="#000000" data-fill-palette-color="accent"></path><path d="M59.6 59c-1-1.1-2-2.1-2.9-3.2 0 0 0 0 0 0 0-0.5 0-1 0-1.5 0-0.2 0-0.4 0-0.6l0-3.5c0-3.1 0-6.2 0-9.4 0-1.7-1.2-2.9-2.8-2.9-6.8 0-13.8 0-21.5 0-0.2 0-0.4 0-0.6 0.1-1.4 0.3-2.2 1.4-2.2 2.9 0 2.5 0 5 0 7.5 0 2 0 4.1 0 6.1 0 0.2 0 0.3 0 0.5 0 0.3 0 0.6 0 0.8-0.1 0.2-0.3 0.4-0.5 0.6-0.1 0.1-0.2 0.2-0.4 0.4-0.6 0.7-1.2 1.3-1.8 2l-0.3 0.4c-0.4 0.4-0.5 0.9-0.3 1.4 0.2 0.5 0.6 0.8 1.2 0.9 0.1 0 0.2 0 0.3 0 0 0 0.1 0 0.1 0 0 0 0.1 0 0.1 0 4.2 0 8.4 0 12.7 0l5.5 0c4.1 0 8.2 0 12.4 0 0.3 0 1.1 0 1.5-0.9C60.3 59.8 59.8 59.2 59.6 59zM32.3 40.8C32.3 40.8 32.4 40.8 32.3 40.8c7.2 0 14.3 0 21.4 0 0 0 0.1 0 0.1 0 0 0 0 0.1 0 0.1 0 3.7 0 7.4 0 11.1l0 3H32.3c0-4.7 0-9.4 0-14C32.3 40.9 32.3 40.8 32.3 40.8zM46.7 58.7c-0.1-0.4-0.2-0.7-0.4-1.1-2.2 0-4.3 0-6.4 0-0.1 0.4-0.2 0.7-0.4 1.1-3.3 0-6.7 0-10.1 0 0.1-0.1 0.1-0.2 0.2-0.3 0.6-0.6 1.1-1.2 1.7-1.8 0.1-0.1 0.3-0.2 0.4-0.2 7.5 0 15 0 22.5 0 0.2 0 0.4 0.1 0.5 0.2 0.6 0.7 1.3 1.4 1.9 2.1C53.4 58.7 50 58.7 46.7 58.7z" fill="#000000" data-fill-palette-color="accent"></path></g></g><g fill="#00f3f9" data-fill-palette-color="accent"><path d="M19.2 37.6c-0.2 0.1-0.4 0.2-0.6 0.3 0 0 0 0.1 0 0.1 1 1.7 1.8 3.4 3 5 1.5 1.8 3.2 3.3 5.3 4.3 0 0 0.1 0 0.1 0.1-0.2 0.1-0.3 0.1-0.5 0.1-2.8 0.6-5.5 0.3-7.9-1.5-1.1-0.8-2-1.9-2.7-3.2-0.4-0.8-0.9-1.6-1.3-2.4-0.1-0.1-0.1-0.2-0.2-0.3-0.2 0.1-0.4 0.2-0.6 0.4 0.1-2 0.2-3.9 0.3-5.9C15.9 35.7 17.5 36.6 19.2 37.6z" fill="#000000" data-fill-palette-color="accent"></path><path d="M44.9 33.1c0.2-0.1 0.4-0.2 0.5-0.3 0 0 0-0.1 0-0.1-1-1.6-2-3.4-3.3-4.8-1.5-1.8-3.3-3.2-5.5-4.1 0 0-0.1 0-0.1-0.1 0.2-0.1 0.3-0.1 0.5-0.2 2.8-0.8 5.5-0.6 8 1.1 1.2 0.8 2.1 1.9 2.8 3 0.5 0.8 1 1.5 1.4 2.3 0.1 0.1 0.1 0.2 0.2 0.3 0.2-0.1 0.4-0.2 0.6-0.4 0 2 0 3.9 0 5.9C48.3 34.9 46.7 34 44.9 33.1z" fill="#000000" data-fill-palette-color="accent"></path></g></g></svg></g></svg></g></svg></g></svg></g><g></g></svg></g></svg></g></svg></g><defs></defs></svg><rect width="448" height="360" fill="none" stroke="none" visibility="hidden"></rect></g></svg></g></svg>